<svg xmlns="http://www.w3.org/2000/svg" viewBox="0 0 512 512" width="100%" height="100%">
  <defs>
    <linearGradient id="bgGrad" x1="0%" y1="0%" x2="100%" y2="100%">
      <stop offset="0%" stop-color="#1e3a8a"/>
      <stop offset="50%" stop-color="#0284c7"/>
      <stop offset="100%" stop-color="#10b981"/>
    </linearGradient>
    <filter id="shadow" x="-20%" y="-20%" width="140%" height="140%">
      <feDropShadow dx="0" dy="16" stdDeviation="24" flood-color="#000000" flood-opacity="0.5"/>
    </filter>
  </defs>

  <!-- Background rounded rectangle -->
  <rect width="512" height="512" rx="128" fill="url(#bgGrad)"/>

  <!-- Inner industrial border -->
  <rect x="24" y="24" width="464" height="464" rx="104" fill="none" stroke="#ffffff" stroke-opacity="0.15" stroke-width="4"/>

  <!-- Icon Graphics (Translation Globe / Gears / Symbols) -->
  <g filter="url(#shadow)" fill="#ffffff">
    <!-- Main Translation Symbol -->
    <path d="M266 312l-48-47.5.5-.5c30-33 53-73 68-116h55v-36h-132V76h-36v36H40v36h210c-14 36-33 70-58 99-16-19-30-40-42-63h-38c14 31 33 60 56 86l-96 95 26 26 95-94 59 58 14-37zm106-96h-38l-84 224h38l21-56h90l21 56h38l-86-224zm-50 134l31-82 31 82h-62z"/>
  </g>

  <!-- Industrial Tech Dot Accents -->
  <circle cx="120" cy="120" r="12" fill="#38bdf8"/>
  <circle cx="392" cy="120" r="12" fill="#34d399"/>
  <circle cx="392" cy="392" r="12" fill="#60a5fa"/>
  <circle cx="120" cy="392" r="12" fill="#facc15"/>
</svg>
